<svg width="914" height="400" fill="none" xmlns="http://www.w3.org/2000/svg"><path fill="#fff" d="M0 0h914v400H0z"/><path d="M395.426 212h-5.073l-3.048-5.045a16.638 16.638 0 0 0-.657-1.025 5.037 5.037 0 0 0-.642-.766 2.217 2.217 0 0 0-.67-.492 1.601 1.601 0 0 0-.752-.178h-1.19V212h-4.416v-19.605h7c4.758 0 7.137 1.777 7.137 5.332 0 .683-.105 1.317-.314 1.9a5.294 5.294 0 0 1-.889 1.559 5.634 5.634 0 0 1-1.394 1.203 7.079 7.079 0 0 1-1.805.793v.054c.291.091.574.242.847.452.274.2.538.437.793.71.256.274.497.57.725.889.237.31.451.615.643.916l3.705 5.797Zm-12.032-16.297v5.455h1.915c.947 0 1.709-.273 2.283-.82.583-.556.875-1.244.875-2.065 0-1.713-1.026-2.57-3.076-2.57h-1.997ZM396.711 212v-19.605h6.946c6.963 0 10.445 3.185 10.445 9.556 0 3.054-.952 5.492-2.857 7.315-1.896 1.823-4.426 2.734-7.588 2.734h-6.946Zm4.416-16.01v12.428h2.188c1.914 0 3.413-.574 4.498-1.723 1.094-1.148 1.641-2.711 1.641-4.689 0-1.869-.543-3.336-1.627-4.402-1.076-1.076-2.589-1.614-4.539-1.614h-2.161Zm14.767 15.258v-4.375a8.52 8.52 0 0 0 2.584 1.504 8.407 8.407 0 0 0 2.816.492 6.17 6.17 0 0 0 1.449-.15c.419-.101.766-.237 1.039-.41.283-.183.492-.392.629-.629.137-.246.205-.511.205-.793a1.7 1.7 0 0 0-.328-1.026 3.518 3.518 0 0 0-.902-.834 9.086 9.086 0 0 0-1.34-.738 48 48 0 0 0-1.682-.725c-1.531-.638-2.675-1.417-3.431-2.337-.748-.921-1.121-2.033-1.121-3.336 0-1.021.205-1.896.615-2.625a5.223 5.223 0 0 1 1.668-1.819c.711-.474 1.531-.82 2.461-1.039a12.357 12.357 0 0 1 2.953-.342c1.021 0 1.923.064 2.707.192.793.118 1.522.305 2.187.56v4.088a6.444 6.444 0 0 0-1.08-.601 7.672 7.672 0 0 0-1.189-.424 8.41 8.41 0 0 0-1.231-.26 8.447 8.447 0 0 0-1.148-.082c-.501 0-.957.05-1.367.15-.41.092-.757.224-1.039.397a1.977 1.977 0 0 0-.657.629 1.44 1.44 0 0 0-.232.806c0 .329.087.625.26.889.173.255.419.501.738.738.319.228.706.456 1.162.684.456.219.971.447 1.545.684.784.328 1.486.679 2.106 1.052a7.35 7.35 0 0 1 1.613 1.244c.446.465.788.999 1.025 1.6.237.593.356 1.285.356 2.078 0 1.094-.21 2.015-.629 2.762a5.07 5.07 0 0 1-1.682 1.805c-.711.455-1.54.783-2.488.984-.939.201-1.932.301-2.981.301-1.075 0-2.1-.091-3.076-.274-.966-.182-1.804-.455-2.515-.82Zm40.866.752v-13.535c0-.693.055-1.809.164-3.35h-.055c-.127.41-.246.766-.355 1.067-.1.3-.196.547-.287.738L449.391 212h-.779l-6.85-14.984c-.201-.456-.406-1.099-.615-1.928h-.055c.036.419.059.898.068 1.435.019.538.028 1.135.028 1.791V212h-1.778v-19.605h2.147l6.658 14.738c.137.31.269.629.397.957.136.319.259.661.369 1.025h.082c.127-.364.241-.697.341-.998.11-.301.242-.624.397-.971l6.713-14.751h2.037V212h-1.791Zm6.891-17.541c-.337 0-.629-.119-.875-.355a1.2 1.2 0 0 1-.369-.903c0-.355.123-.647.369-.875.246-.237.538-.355.875-.355.173 0 .337.032.492.095.155.055.287.137.397.246.118.11.209.242.273.397.073.146.11.31.11.492a1.276 1.276 0 0 1-.37.903 1.367 1.367 0 0 1-.41.259c-.146.064-.31.096-.492.096ZM462.79 212v-14h1.75v14h-1.75Zm17.268-1.08c0 2.598-.593 4.521-1.777 5.769-1.176 1.258-2.995 1.887-5.455 1.887a9.599 9.599 0 0 1-4.348-1.025v-1.778c1.522.848 2.971 1.272 4.348 1.272 3.654 0 5.482-1.932 5.482-5.797v-1.682h-.055c-1.075 1.842-2.716 2.762-4.922 2.762-.866 0-1.658-.159-2.379-.478a5.15 5.15 0 0 1-1.832-1.381c-.51-.602-.906-1.331-1.189-2.188-.283-.866-.424-1.841-.424-2.926 0-1.148.151-2.192.451-3.13.301-.948.729-1.76 1.285-2.434a5.69 5.69 0 0 1 2.01-1.559c.793-.373 1.682-.56 2.666-.56 1.978 0 3.423.802 4.334 2.406h.055V198h1.75v12.92Zm-1.75-7.424a4.37 4.37 0 0 0-1.19-3.021 4.105 4.105 0 0 0-1.339-.93 3.981 3.981 0 0 0-1.696-.356c-.729 0-1.39.142-1.982.424a4.366 4.366 0 0 0-1.504 1.203c-.41.52-.729 1.153-.957 1.901-.219.738-.328 1.572-.328 2.502 0 .857.105 1.631.314 2.324.21.693.506 1.281.889 1.764a4 4 0 0 0 1.381 1.121 4.128 4.128 0 0 0 1.818.396c.693 0 1.322-.123 1.887-.369a4.383 4.383 0 0 0 1.449-1.039c.401-.447.711-.966.93-1.559a5.626 5.626 0 0 0 .328-1.941v-2.42Zm12.647-3.705c-.41-.301-.939-.451-1.586-.451a2.66 2.66 0 0 0-1.23.273 3.1 3.1 0 0 0-.944.711 4.558 4.558 0 0 0-.683 1.053 7.91 7.91 0 0 0-.452 1.23c-.109.429-.191.862-.246 1.299-.045.438-.068.852-.068 1.244V212h-1.736v-14h1.736v2.994h.055c.164-.51.369-.966.615-1.367.255-.41.547-.752.875-1.025a3.572 3.572 0 0 1 1.066-.643 3.497 3.497 0 0 1 1.231-.219c.282 0 .533.018.752.055.228.036.433.091.615.164v1.832ZM501.004 212v-2.488h-.054c-.456.893-1.08 1.586-1.873 2.078-.784.492-1.673.738-2.666.738a5.524 5.524 0 0 1-1.832-.287 4.034 4.034 0 0 1-1.381-.807 3.756 3.756 0 0 1-.875-1.271 4.265 4.265 0 0 1-.301-1.627c0-1.267.392-2.274 1.176-3.022.784-.756 1.968-1.248 3.554-1.476l4.252-.615c0-2.689-1.043-4.034-3.131-4.034-1.631 0-3.144.597-4.539 1.791v-1.914a5.7 5.7 0 0 1 .985-.56 8.23 8.23 0 0 1 1.176-.438c.41-.127.829-.223 1.257-.287a7.734 7.734 0 0 1 1.272-.109c1.558 0 2.734.437 3.527 1.312.802.875 1.203 2.179 1.203 3.911V212h-1.75Zm-3.609-6.795c-.629.091-1.167.205-1.613.342-.447.137-.816.323-1.108.56a2.007 2.007 0 0 0-.642.862c-.137.337-.205.756-.205 1.258 0 .373.063.72.191 1.039.137.319.328.597.574.834.255.227.561.405.916.533.365.127.775.191 1.231.191a3.995 3.995 0 0 0 3.049-1.34c.382-.419.679-.92.888-1.504a5.36 5.36 0 0 0 .328-1.9v-1.381l-3.609.506Zm15.026 6.631a4.34 4.34 0 0 1-1.969.451c-2.26 0-3.391-1.303-3.391-3.91v-8.846h-2.46V198h2.46v-3.527l1.75-.575V198h3.61v1.531h-3.61v8.573c0 .947.155 1.631.465 2.05.31.42.834.629 1.573.629.546 0 1.071-.164 1.572-.492v1.545Zm7.848.492c-1.039 0-1.973-.173-2.803-.519a6.04 6.04 0 0 1-2.105-1.463 6.55 6.55 0 0 1-1.34-2.284c-.31-.884-.465-1.863-.465-2.939 0-1.167.164-2.21.492-3.131.328-.92.793-1.7 1.395-2.338a6.008 6.008 0 0 1 2.201-1.476c.857-.338 1.814-.506 2.871-.506 1.012 0 1.923.168 2.735.506a5.507 5.507 0 0 1 2.064 1.435c.565.629.998 1.395 1.299 2.297.301.902.451 1.928.451 3.076 0 1.094-.16 2.092-.479 2.994a6.653 6.653 0 0 1-1.339 2.311 5.981 5.981 0 0 1-2.133 1.504c-.839.355-1.787.533-2.844.533Zm.137-13.139c-.766 0-1.459.133-2.078.397a4.39 4.39 0 0 0-1.6 1.162c-.437.501-.775 1.121-1.012 1.859-.237.73-.355 1.559-.355 2.489 0 .875.118 1.663.355 2.365.237.702.57 1.303.998 1.805.438.501.967.888 1.586 1.162.62.264 1.313.396 2.078.396.784 0 1.477-.127 2.079-.383a4.205 4.205 0 0 0 1.531-1.134c.419-.502.734-1.112.943-1.832.219-.72.328-1.541.328-2.461 0-1.887-.419-3.327-1.258-4.321-.838-1.002-2.037-1.504-3.595-1.504Zm16.571.602c-.41-.301-.939-.451-1.586-.451-.465 0-.875.091-1.231.273-.355.173-.67.41-.943.711a4.594 4.594 0 0 0-.684 1.053 8.01 8.01 0 0 0-.451 1.23c-.109.429-.191.862-.246 1.299-.046.438-.068.852-.068 1.244V212h-1.737v-14h1.737v2.994h.054c.164-.51.37-.966.616-1.367.255-.41.546-.752.875-1.025a3.572 3.572 0 0 1 1.066-.643 3.495 3.495 0 0 1 1.23-.219c.283 0 .534.018.752.055.228.036.433.091.616.164v1.832Z" fill="#333"/></svg>